
<svg id="_图层_2" data-name="图层 2" xmlns="http://www.w3.org/2000/svg" viewBox="0 0 3045.36 1630.4">
  <g id="home">
    <path class="cls-1" d="M0,0V1630.4H3045.36V0H0ZM2699.36,915.59c-78.27,6.19-95.5,58.56-84.08,132.59-143.51-23.13-238.47,36.9-297.52,158.46-159.4,4.76-222.8,82.83-227.99,205.35-95.61-41.2-157.99-13.05-194.03,70.07-48.17-57.23-77.68-76.8-142.22-78.33-36.37-.86-71.41,15.07-93.67,43.84-16.87,21.8-26.73,50.46-23.9,84.72-40.15-71.68-159.81-57.94-186.49,5.39-33.96-47.97-90.66-72.37-136.96-23.01-13.62-99.74-134.23-117.19-163.06-54.13-31.4-54.02-72.77-57.35-137.63-42.08-76.54-164.93-234.83-150.1-345.76-12.93-21.37-104.14-74.88-194.62-257.1-230.42,70.91-164.5,27.97-268.49-104.29-325.01,175.17-37.78,236.51-148.18,201.31-320.16,110.66-7.51,149.48-76.56,160.08-169.78,53.83,.92,84.33-30.12,101.06-80.04,53.09,60.79,107.38,67.07,163.31-1.62,26.36,30.55,58.89,31.42,97.83,1.62,65.23,68.18,130.45,62.91,195.65-4.04,39.73,38.9,79.91,37.03,120.46,.81,54.86,63.48,110.92,66.72,168.16,10.51,70.43,85.49,141.04,84.31,211.82,1.62,123.27,100.97,241.15,89.03,354.92-8.89,53.46,51.27,98.81,45.59,135.82-18.6,50.53,55.78,150.78,57.4,195.65,9.97,9.97,21.56,51.47,22.1,61.71,0,18,29.64,41.52,51.46,78.69,53.9,12.62,57.03,56.34,88.92,117.5,106.72-11.65,61.73,10.68,98.58,56.05,118.58-11.57,30.21-4.89,57.69,12.67,83.54-144.04,80.56-130.05,177.02-38,281.35Z"/>
  </g>
</svg>