<svg id="图层_1" data-name="图层 1" xmlns="http://www.w3.org/2000/svg" xmlns:xlink="http://www.w3.org/1999/xlink" viewBox="0 0 2721.31 1495.52"><defs><style>.cls-1{fill:#fff;}.cls-2{font-size:33px;fill:#00b09a;font-family:UniversLTStd-Light, Univers LT Std;font-weight:300;}.cls-3{letter-spacing:-0.02em;}.cls-4{fill:url(#未命名的渐变_76);}.cls-5{fill:url(#未命名的渐变_76-2);}.cls-6{fill:url(#未命名的渐变_76-3);}.cls-7{fill:url(#未命名的渐变_76-4);}</style><linearGradient id="未命名的渐变_76" x1="3383.77" y1="2035.71" x2="3600.13" y2="2035.71" gradientUnits="userSpaceOnUse"><stop offset="0" stop-color="#63c0ae"/><stop offset="0.65" stop-color="#87d6b3"/><stop offset="1" stop-color="#95dfb5"/></linearGradient><linearGradient id="未命名的渐变_76-2" x1="1464.64" y1="1780.31" x2="1629.68" y2="1780.31" xlink:href="#未命名的渐变_76"/><linearGradient id="未命名的渐变_76-3" x1="1768.73" y1="1022.22" x2="1851.98" y2="1022.22" xlink:href="#未命名的渐变_76"/><linearGradient id="未命名的渐变_76-4" x1="3855.75" y1="1000.15" x2="3946.34" y2="1000.15" xlink:href="#未命名的渐变_76"/></defs><title>头图svg</title><path class="cls-1" d="M1391.68,783.16V2278.68H4113l-.05-1495.52ZM3929,1563.87c-78.28,6.19-95.51,58.55-84.08,132.59-143.51-23.14-238.47,36.9-297.52,158.46-159.41,4.76-222.8,82.83-228,205.35-95.62-41.2-158-13-194,70.07-48.17-57.23-77.67-76.8-142.22-78.33-36.37-.87-71.41,15.07-93.67,43.84-16.87,21.8-26.73,50.46-23.9,84.72-40.15-71.69-159.81-57.94-186.49,5.39-34-48-90.66-72.38-137-23-13.61-99.74-134.23-117.19-163.06-54.12-31.4-54-72.77-57.36-137.63-42.08-76.54-164.93-234.83-150.1-345.76-12.94-21.37-104.13-74.88-194.62-257.09-230.41,70.91-164.5,28-268.49-104.3-325,175.17-37.78,236.51-148.18,201.31-320.15,110.67-7.52,149.48-76.57,160.08-169.78,53.83.92,84.33-30.13,101.06-80,53.09,60.78,107.38,67.06,163.31-1.62,26.36,30.55,58.9,31.42,97.83,1.62,65.23,68.18,130.45,62.9,195.65-4,39.73,38.91,79.91,37,120.46.81,54.86,63.48,110.92,66.72,168.17,10.51,70.42,85.49,141,84.32,211.82,1.62,123.27,101,241.15,89,354.92-8.89,53.46,51.27,98.8,45.58,135.82-18.6,50.53,55.79,150.78,57.4,195.65,10,10,21.56,51.47,22.1,61.71,0,18,29.64,41.52,51.46,78.7,53.9,12.62,57,56.34,88.92,117.5,106.72-11.66,61.73,10.68,98.58,56,118.58-11.57,30.21-4.89,57.69,12.67,83.54C3823,1363.08,3837,1459.54,3929,1563.87Z" transform="translate(-1391.68 -783.16)"/><text class="cls-2" transform="translate(1201.07 1456.91)">scroll d<tspan class="cls-3" x="104.51" y="0">o</tspan><tspan x="122.2" y="0">wn to see more</tspan></text><path class="cls-4" d="M3389.67,2164.65c-17.54-137.88-8.82-254.09,210.46-257.88C3427,1961.16,3402.77,2044.83,3389.67,2164.65Z" transform="translate(-1391.68 -783.16)"/><path class="cls-5" d="M1629.68,1724.09c-9.33,81.38-55.51,126.77-165,108.39C1540,1824.56,1608,1790.69,1629.68,1724.09Z" transform="translate(-1391.68 -783.16)"/><path class="cls-6" d="M1842.26,969.75c26.89,47.66-3.41,107.58-73.53,104.85C1823,1056.9,1850.25,1002.17,1842.26,969.75Z" transform="translate(-1391.68 -783.16)"/><path class="cls-7" d="M3856,960.05c-3.83,71.23,45.09,85,90.38,78.89C3898.6,1025.41,3867.37,994.66,3856,960.05Z" transform="translate(-1391.68 -783.16)"/></svg>