<?xml version="1.0" standalone="no"?><!DOCTYPE svg PUBLIC "-//W3C//DTD SVG 1.1//EN" "http://www.w3.org/Graphics/SVG/1.1/DTD/svg11.dtd"><svg t="1691029428947" class="icon" viewBox="0 0 1024 1024" version="1.1" xmlns="http://www.w3.org/2000/svg" p-id="10939" data-spm-anchor-id="a313x.search_index.0.i13.76c63a81JzoK4S" xmlns:xlink="http://www.w3.org/1999/xlink" width="200" height="200"><path d="M358.912 223.914667h84.309333c17.442133 0 31.3344 14.336 31.3344 31.812266v76.1856a31.4368 31.4368 0 0 1-31.368533 31.3344h-84.2752v95.914667a18.944 18.944 0 0 1-18.807467 18.773333 18.944 18.944 0 0 1-18.8416-18.773333v-95.914667H236.987733a31.8464 31.8464 0 0 1-31.368533-31.778133V255.2832c0-16.9984 13.892267-31.3344 31.402667-31.3344h84.241066v-33.1776c0-10.308267 8.533333-18.773333 18.8416-18.773333 10.308267 0 18.807467 8.465067 18.807467 18.773333v33.1776zM243.268267 325.632h77.994666V262.007467H243.268267V325.632z m115.643733 0h78.0288V262.007467h-78.0288V325.632z m304.810667 396.936533l34.952533-88.2688 34.065067 88.2688h-69.0176z" fill="#10656B" p-id="10940" data-spm-anchor-id="a313x.search_index.0.i10.76c63a81JzoK4S" class=""></path><path d="M408.234667 615.936H133.461333a69.188267 69.188267 0 0 1-69.461333-69.4272V133.4272c0-38.5024 30.9248-69.4272 69.461333-69.4272h413.2864c38.536533 0 69.4272 30.9248 69.4272 69.4272v275.114667h265.386667a78.506667 78.506667 0 0 1 78.4384 78.370133v394.683733a78.506667 78.506667 0 0 1-78.4384 78.404267H486.673067a78.506667 78.506667 0 0 1-78.4384-78.404267v-265.659733z m39.253333-39.185067l129.501867-129.501866V133.461333a30.071467 30.071467 0 0 0-30.242134-30.242133H133.461333a30.037333 30.037333 0 0 0-30.242133 30.242133v413.0816c0 16.861867 13.346133 30.242133 30.242133 30.242134h314.026667z m354.304 221.525334L716.117333 575.146667a18.978133 18.978133 0 0 0-17.476266-12.117334 18.909867 18.909867 0 0 0-17.476267 12.117334l-88.302933 223.095466a18.807467 18.807467 0 0 0 10.752 24.644267 18.807467 18.807467 0 0 0 24.644266-10.752l20.1728-51.541333h98.2016l19.694934 51.541333a18.7392 18.7392 0 0 0 24.644266 10.752 18.773333 18.773333 0 0 0 10.752-24.644267zM716.117333 176.913067a19.114667 19.114667 0 0 1-17.476266-20.616534 19.285333 19.285333 0 0 1 20.1728-17.476266c57.344 4.471467 167.185067 46.148267 170.325333 171.588266a18.602667 18.602667 0 1 1-37.205333 0.887467c-3.584-121.856-130.423467-133.9392-135.816534-134.382933z" fill="#10656B" p-id="10941"></path><path d="M318.122667 830.976a19.0464 19.0464 0 0 1 6.485333 34.338133 18.602667 18.602667 0 0 1-13.653333 2.833067c-140.458667-27.136-162.474667-160.699733-164.317867-172.1344l-0.170667-0.785067a19.0464 19.0464 0 0 1 16.622934-21.060266 19.012267 19.012267 0 0 1 21.026133 16.5888l0.1024 0.682666c1.706667 10.5472 18.944 116.906667 133.9392 139.537067z" fill="#10656B" p-id="10942"></path></svg>