<?xml version="1.0" encoding="UTF-8"?>
<svg id="_图层_2" data-name="图层 2" xmlns="http://www.w3.org/2000/svg" xmlns:xlink="http://www.w3.org/1999/xlink" viewBox="0 0 476.79 168.56">
  <defs>
    <style>
      .cls-1 {
        filter: url(#drop-shadow-10);
      }

      .cls-2 {
        filter: url(#drop-shadow-7);
      }

      .cls-2, .cls-3, .cls-4, .cls-5, .cls-6 {
        fill: #001c28;
      }

      .cls-3 {
        filter: url(#drop-shadow-5);
      }

      .cls-7 {
        filter: url(#drop-shadow-8);
      }

      .cls-4 {
        filter: url(#drop-shadow-3);
      }

      .cls-8 {
        fill: #ffff87;
        filter: url(#drop-shadow-2);
      }

      .cls-5 {
        filter: url(#drop-shadow-4);
      }

      .cls-6 {
        filter: url(#drop-shadow-6);
      }

      .cls-9 {
        clip-path: url(#clippath);
      }

      .cls-10 {
        filter: url(#drop-shadow-1);
      }

      .cls-10, .cls-11, .cls-12 {
        fill: #ffee6a;
      }

      .cls-13 {
        fill: none;
      }

      .cls-12 {
        filter: url(#drop-shadow-9);
      }
    </style>
    <filter id="drop-shadow-1" filterUnits="userSpaceOnUse">
      <feOffset dx="1.7" dy="1.7"/>
      <feGaussianBlur result="blur" stdDeviation="1.7"/>
      <feFlood flood-color="#07a0a0" flood-opacity=".7"/>
      <feComposite in2="blur" operator="in"/>
      <feComposite in="SourceGraphic"/>
    </filter>
    <filter id="drop-shadow-2" filterUnits="userSpaceOnUse">
      <feOffset dx="1.7" dy="1.7"/>
      <feGaussianBlur result="blur-2" stdDeviation="1.7"/>
      <feFlood flood-color="#07949b" flood-opacity=".6"/>
      <feComposite in2="blur-2" operator="in"/>
      <feComposite in="SourceGraphic"/>
    </filter>
    <filter id="drop-shadow-3" filterUnits="userSpaceOnUse">
      <feOffset dx="1.42" dy="1.42"/>
      <feGaussianBlur result="blur-3" stdDeviation=".85"/>
      <feFlood flood-color="#0aa0a0" flood-opacity=".5"/>
      <feComposite in2="blur-3" operator="in"/>
      <feComposite in="SourceGraphic"/>
    </filter>
    <filter id="drop-shadow-4" filterUnits="userSpaceOnUse">
      <feOffset dx="1.42" dy="1.42"/>
      <feGaussianBlur result="blur-4" stdDeviation=".85"/>
      <feFlood flood-color="#0aa0a0" flood-opacity=".5"/>
      <feComposite in2="blur-4" operator="in"/>
      <feComposite in="SourceGraphic"/>
    </filter>
    <filter id="drop-shadow-5" filterUnits="userSpaceOnUse">
      <feOffset dx="1.42" dy="1.42"/>
      <feGaussianBlur result="blur-5" stdDeviation=".85"/>
      <feFlood flood-color="#0aa0a0" flood-opacity=".5"/>
      <feComposite in2="blur-5" operator="in"/>
      <feComposite in="SourceGraphic"/>
    </filter>
    <filter id="drop-shadow-6" filterUnits="userSpaceOnUse">
      <feOffset dx="1.42" dy="1.42"/>
      <feGaussianBlur result="blur-6" stdDeviation=".85"/>
      <feFlood flood-color="#0aa0a0" flood-opacity=".5"/>
      <feComposite in2="blur-6" operator="in"/>
      <feComposite in="SourceGraphic"/>
    </filter>
    <filter id="drop-shadow-7" filterUnits="userSpaceOnUse">
      <feOffset dx="1.42" dy="1.42"/>
      <feGaussianBlur result="blur-7" stdDeviation=".85"/>
      <feFlood flood-color="#0aa0a0" flood-opacity=".5"/>
      <feComposite in2="blur-7" operator="in"/>
      <feComposite in="SourceGraphic"/>
    </filter>
    <filter id="drop-shadow-8" filterUnits="userSpaceOnUse">
      <feOffset dx="1.42" dy="1.42"/>
      <feGaussianBlur result="blur-8" stdDeviation="1.42"/>
      <feFlood flood-color="#07a0a0" flood-opacity=".7"/>
      <feComposite in2="blur-8" operator="in"/>
      <feComposite in="SourceGraphic"/>
    </filter>
    <filter id="drop-shadow-9" filterUnits="userSpaceOnUse">
      <feOffset dx="2.27" dy="2.27"/>
      <feGaussianBlur result="blur-9" stdDeviation="2.27"/>
      <feFlood flood-color="#0dbacc" flood-opacity=".75"/>
      <feComposite in2="blur-9" operator="in"/>
      <feComposite in="SourceGraphic"/>
    </filter>
    <clipPath id="clippath">
      <path class="cls-13" d="M95.11,122.55c10.42-6.22,12.08-21.25,6.06-28.77,17.89-21.59-9.98-45.31-26.92-31.57-22.46-19.83-28.05,11.74-28.05,11.74-23.13,.29-9.63,8.89-9.63,8.89-9.4,8.01-9,18.22,.35,22.92,0,0,2.34,41.15-4.65,50.93-6.98,9.78-32.28,11.87-32.28,11.87V68.38C0,33.63,28.18,5.45,62.93,5.45s62.93,28.18,62.93,62.93c0,23.08-12.23,43.21-30.75,54.16Z"/>
    </clipPath>
    <filter id="drop-shadow-10" filterUnits="userSpaceOnUse">
      <feOffset dx="1.42" dy="1.42"/>
      <feGaussianBlur result="blur-10" stdDeviation="1.42"/>
      <feFlood flood-color="#07949b" flood-opacity=".75"/>
      <feComposite in2="blur-10" operator="in"/>
      <feComposite in="SourceGraphic"/>
    </filter>
  </defs>
  <g id="_图层_1-2" data-name="图层 1">
    <g>
      <path class="cls-10" d="M212.12,42.94c0-4.48,1.58-8.3,4.74-11.46,3.16-3.16,6.95-4.74,11.36-4.74s8.3,1.58,11.46,4.74c3.16,3.16,4.74,6.98,4.74,11.46s-1.58,8.22-4.74,11.41c-3.16,3.2-6.98,4.79-11.46,4.79s-8.2-1.6-11.36-4.79c-3.16-3.19-4.74-7-4.74-11.41Z"/>
      <path class="cls-8" d="M46.36,73.85s5.63-31.5,28-11.67c16.93-13.68,44.7,10.03,26.81,31.54,8.76,10.98,1.13,37.95-26.2,30.02,0,0-5.23,15.22-9.14,3.27-8.9,7.55-28.8,4.23-28.79-21.44-9.32-4.71-9.7-14.89-.31-22.87,0,0-13.46-8.61,9.62-8.85Z"/>
      <g>
        <path class="cls-4" d="M157.04,166.55c15.06,0,26.44-5.68,30.09-14.96,.8-2.03,1.08-4.22,1.08-6.4V28.51h-31.17V166.55Z"/>
        <rect class="cls-5" x="213.7" y="73.27" width="29.35" height="93.27"/>
        <path class="cls-3" d="M327.63,71.3c-11.59,0-21.7,5.07-30.33,15.22v-13.24h-29.35v93.27h29.35v-60.17c6.72-10.28,13.54-15.41,20.45-15.41,9.68,0,14.52,6.23,14.52,18.7v56.89h29.35v-59.34c0-11.54-3.24-20.41-9.73-26.61-6.49-6.2-14.57-9.3-24.26-9.3Z"/>
        <polygon class="cls-6" points="438.75 119.42 475.21 73.27 440.78 73.27 412.26 109.61 412.26 28.51 382.92 28.51 382.92 166.55 412.26 166.55 412.26 130.34 440.89 166.55 476.79 166.55 438.75 119.42"/>
        <path class="cls-2" d="M62.93,5.45C28.18,5.45,0,33.63,0,68.38v100.18s25.29-2.1,32.28-11.87c6.98-9.78,4.65-50.93,4.65-50.93-9.35-4.7-9.75-14.91-.35-22.92,0,0-13.5-8.6,9.63-8.89,0,0,5.59-31.58,28.05-11.74,16.94-13.74,44.82,9.98,26.92,31.57,4.81,6.02,4.72,16.84-.85,24.11l.54,.81c15.26-11.47,25-29.72,25-50.32,0-34.76-28.18-62.93-62.93-62.93Z"/>
      </g>
      <g class="cls-7">
        <path class="cls-11" d="M102.18,64.08c13.44-9.3,31.34-22.13,31.34-22.13l-11.95-14.6L134.94,0l-42.17,21.85,19.71,25.72s-6.93,6.9-13.71,13.92c1.14,.85,2.57,1.71,3.41,2.59Z"/>
      </g>
      <path class="cls-12" d="M46.36,73.85s5.63-31.5,28-11.67c16.93-13.68,44.7,10.03,26.81,31.54,8.76,10.98,1.13,37.95-26.2,30.02,0,0-5.23,15.22-9.14,3.27-8.9,7.55-28.8,4.23-28.79-21.44-9.32-4.71-9.7-14.89-.31-22.87,0,0-13.46-8.61,9.62-8.85Z"/>
      <g class="cls-9">
        <g class="cls-1">
          <path class="cls-11" d="M134.94,0l-42.17,21.85,19.71,25.72s-25.47,25.48-24.41,25.79c1.06,.31,45.45-31.4,45.45-31.4l-11.95-14.6L134.94,0Z"/>
        </g>
      </g>
    </g>
  </g>
</svg>